<?xml version="1.0" standalone="no"?>
<!DOCTYPE svg PUBLIC "-//W3C//DTD SVG 20010904//EN"
 "http://www.w3.org/TR/2001/REC-SVG-20010904/DTD/svg10.dtd">
<svg version="1.0" xmlns="http://www.w3.org/2000/svg"
 width="1700.000000pt" height="1700.000000pt" viewBox="0 0 1700.000000 1700.000000"
 preserveAspectRatio="xMidYMid meet">
<metadata>
Created by potrace 1.11, written by Peter Selinger 2001-2013
</metadata>
<g transform="translate(0.000000,1700.000000) scale(0.100000,-0.100000)"
fill="#000000" stroke="none">
<path d="M0 8500 l0 -8500 8500 0 8500 0 0 8500 0 8500 -8500 0 -8500 0 0
-8500z m14216 4787 l1904 -3299 -1891 -3276 c-1041 -1803 -1901 -3289 -1911
-3304 l-19 -28 -3803 0 c-3610 0 -3804 1 -3818 18 -8 9 -868 1496 -1911 3304
l-1897 3286 1881 3259 c1035 1792 1892 3277 1906 3301 l25 42 3815 -2 3814 -3
1905 -3298z m-7858 -10876 c111 -57 153 -190 95 -301 -87 -164 -313 -164 -395
-1 -101 198 103 402 300 302z m2257 -36 c83 -22 149 -61 219 -130 95 -92 157
-234 167 -380 l4 -50 -195 0 -195 0 -7 59 c-14 111 -74 171 -165 164 -95 -8
-132 -56 -155 -204 -18 -111 -18 -780 0 -892 22 -136 56 -189 129 -202 110
-18 176 35 191 158 l7 57 199 3 198 2 -7 -52 c-33 -257 -165 -437 -365 -499
-91 -28 -227 -35 -317 -16 -104 22 -178 62 -254 137 -102 100 -155 224 -179
420 -13 105 -13 768 0 870 27 210 76 325 182 426 114 108 205 142 378 143 65
1 129 -5 165 -14z m-3167 -21 c191 -39 295 -138 338 -321 21 -86 24 -329 6
-393 -18 -61 -65 -128 -118 -168 l-43 -34 53 -49 c97 -88 134 -226 121 -449
-15 -259 -77 -396 -212 -467 -114 -61 -142 -65 -535 -70 l-358 -5 0 986 0 986
335 0 c268 0 351 -3 413 -16z m1925 -473 c225 -88 297 -294 284 -816 -9 -325
-43 -459 -147 -565 -87 -90 -224 -129 -402 -116 -138 10 -213 42 -296 127
-106 107 -151 348 -138 734 13 418 98 586 327 650 84 23 296 15 372 -14z
m2540 0 c197 -77 270 -242 284 -641 10 -298 -21 -535 -84 -652 -42 -76 -126
-148 -208 -178 -61 -22 -86 -25 -200 -24 -153 0 -214 15 -294 71 -30 21 -71
62 -91 92 -76 111 -99 218 -107 506 -8 321 16 525 76 644 30 58 95 124 152
156 83 45 138 55 284 51 106 -2 141 -7 188 -25z m1257 -150 l0 -178 -97 -5
c-73 -4 -109 -10 -139 -26 -52 -27 -100 -81 -113 -129 -7 -24 -11 -213 -11
-515 l0 -478 -185 0 -185 0 0 745 0 745 175 0 175 0 0 -76 0 -76 48 44 c84 75
201 126 295 127 l37 1 0 -179z m823 164 c120 -31 202 -97 255 -202 61 -121 82
-249 82 -500 l0 -163 -306 0 -307 0 5 -108 c6 -130 23 -173 76 -198 32 -15 41
-15 77 -3 41 14 68 51 80 112 l5 27 184 0 183 0 -9 -57 c-27 -176 -109 -313
-222 -368 -106 -52 -271 -69 -394 -40 -171 41 -282 162 -329 362 -26 114 -27
659 0 778 44 198 151 319 322 361 71 17 229 17 298 -1z m-5553 -775 l0 -720
-185 0 -185 0 0 720 0 720 185 0 185 0 0 -720z"/>
<path d="M5012 15958 c-11 -18 -791 -1367 -1732 -2998 -1431 -2479 -1711
-2969 -1703 -2987 4 -12 782 -1363 1728 -3002 l1720 -2980 62 -1 c111 0 387
95 678 234 272 131 546 300 830 514 355 266 670 549 751 672 71 110 79 151 78
405 0 257 -3 274 -115 615 -162 494 -189 662 -189 1190 0 442 8 523 95 1015
41 231 79 458 86 504 17 120 7 308 -21 396 -61 194 -204 478 -445 890 -356
607 -465 802 -628 1135 -94 193 -125 234 -297 396 -102 95 -166 151 -298 257
-45 37 -80 67 -76 67 11 0 407 -212 519 -278 174 -103 255 -161 326 -231 98
-99 149 -180 380 -611 76 -141 143 -243 344 -525 138 -192 282 -394 320 -447
39 -54 74 -96 80 -94 5 1 29 38 52 82 72 134 107 262 162 590 99 592 116 779
108 1199 -9 462 -59 779 -194 1225 -68 226 -94 322 -89 327 11 12 159 -295
247 -514 243 -608 372 -1469 356 -2383 -7 -379 -22 -623 -62 -980 -19 -174
-25 -275 -23 -388 l3 -153 108 121 c159 177 332 324 478 404 215 118 386 115
719 -16 237 -93 373 -122 565 -122 144 0 174 5 345 59 355 111 1024 460 1650
862 132 84 131 84 -130 -146 -688 -605 -1256 -1031 -1497 -1121 -29 -11 -124
-31 -210 -44 -354 -54 -407 -49 -788 80 -92 31 -188 56 -226 60 -224 22 -471
-121 -729 -421 -232 -270 -351 -501 -406 -790 -24 -124 -24 -399 0 -555 42
-274 97 -476 285 -1040 93 -281 144 -417 188 -505 273 -549 848 -1109 1618
-1575 162 -98 371 -210 535 -287 l145 -68 625 -2 625 -2 1720 2980 c946 1639
1724 2990 1728 3002 8 18 -275 513 -1720 3017 l-1730 2995 -1393 3 -1394 2 47
-31 c184 -122 157 -407 -48 -501 -69 -31 -172 -31 -236 0 -138 67 -202 220
-153 364 17 52 73 121 118 149 31 19 27 19 -319 18 -303 0 -345 -2 -310 -13
111 -37 212 -106 274 -189 174 -230 154 -538 -49 -737 -182 -180 -473 -209
-689 -71 -112 72 -213 219 -240 349 -56 271 94 542 352 638 l62 23 -1477 0
-1476 1 -20 -32z m2403 -148 c50 -24 75 -65 75 -122 0 -105 -100 -167 -196
-122 -103 49 -97 202 11 250 41 18 62 17 110 -6z m2223 -10 c98 -60 92 -192
-11 -243 -104 -52 -228 61 -187 168 32 83 126 119 198 75z m341 -95 c32 -16
41 -33 41 -73 -1 -53 -57 -90 -107 -71 -68 26 -73 112 -8 147 27 15 41 15 74
-3z m-2964 -120 c441 -93 596 -642 266 -947 -173 -161 -421 -194 -635 -86 -89
45 -194 154 -239 248 -155 327 31 709 383 784 85 19 140 19 225 1z m3636 -58
c65 -50 36 -147 -44 -147 -41 0 -63 15 -76 50 -12 35 -7 56 22 88 23 24 72 29
98 9z m-886 -72 c44 -43 29 -112 -28 -134 -49 -19 -107 22 -107 74 0 73 85
111 135 60z m550 5 c83 -51 84 -180 3 -230 -41 -25 -110 -26 -149 -3 -40 24
-73 94 -65 138 8 39 49 92 80 105 38 15 98 11 131 -10z m-920 -50 c47 -47 9
-134 -59 -134 -61 0 -100 58 -74 112 26 53 90 63 133 22z m-313 -92 c60 -26
131 -102 152 -165 57 -167 -43 -345 -213 -378 -137 -28 -256 31 -324 159 -32
60 -31 184 1 246 77 147 232 203 384 138z m920 -97 c122 -64 188 -197 158
-323 -56 -232 -345 -307 -501 -130 -51 58 -72 125 -67 210 5 80 28 132 84 188
82 83 225 107 326 55z m983 14 c175 -41 310 -152 384 -317 119 -261 10 -576
-245 -710 -98 -52 -188 -71 -294 -65 -149 9 -273 68 -375 178 -193 210 -194
535 0 747 80 88 202 156 315 175 56 9 159 6 215 -8z m-4828 -102 c46 -21 73
-67 73 -121 0 -58 -25 -98 -78 -123 -55 -27 -101 -19 -149 25 -68 62 -53 179
30 220 41 20 80 20 124 -1z m3301 -269 c37 -41 26 -95 -25 -122 -33 -18 -59
-15 -87 11 -45 40 -36 109 17 132 39 17 65 11 95 -21z m-3550 -27 c179 -47
268 -249 183 -416 -104 -203 -408 -203 -512 0 -83 165 4 368 179 415 62 17 87
17 150 1z m1907 -31 c244 -117 219 -465 -38 -541 -63 -19 -101 -19 -161 -1
-209 63 -278 324 -128 479 62 64 113 85 212 86 49 1 77 -5 115 -23z m813 -47
c230 -115 213 -438 -28 -530 -136 -52 -291 12 -360 147 -34 67 -35 178 -2 245
73 149 246 210 390 138z m3010 11 c30 -28 36 -62 18 -98 -17 -32 -34 -42 -72
-42 -36 0 -60 15 -73 48 -14 33 -2 77 27 98 26 20 75 17 100 -6z m-2134 -136
c199 -51 359 -221 403 -428 80 -377 -272 -731 -647 -652 -373 78 -559 472
-383 808 65 125 204 234 344 272 72 20 207 20 283 0z m-3019 -145 c98 -87 41
-239 -91 -239 -98 0 -165 112 -119 201 23 43 71 69 127 69 39 0 54 -6 83 -31z
m5389 -119 c107 -27 169 -63 251 -145 113 -113 165 -236 165 -392 0 -154 -52
-277 -164 -389 -118 -118 -262 -173 -424 -161 -252 17 -454 194 -507 443 -18
87 -18 131 0 219 35 166 148 312 298 384 131 63 246 76 381 41z m-1585 -27
c85 -63 75 -186 -20 -236 -92 -49 -208 33 -195 137 12 104 133 159 215 99z
m-3132 -38 c163 -51 297 -181 354 -340 27 -76 37 -231 19 -306 -32 -141 -135
-283 -255 -354 -96 -57 -174 -78 -290 -78 -155 0 -265 44 -377 151 -118 112
-171 235 -172 397 0 109 13 162 67 270 36 73 141 179 217 220 131 70 296 85
437 40z m1019 -78 c66 -60 56 -171 -19 -217 -90 -55 -207 9 -207 113 0 83 54
137 136 137 47 0 59 -4 90 -33z m-2562 -68 c164 -61 295 -207 341 -379 19 -70
19 -209 0 -280 -50 -189 -199 -340 -389 -395 -78 -23 -214 -23 -291 0 -191 55
-334 198 -393 389 -21 71 -20 216 2 290 53 179 176 313 345 377 108 41 274 40
385 -2z m665 -66 c85 -63 75 -186 -20 -236 -92 -49 -208 33 -195 137 12 104
133 159 215 99z m2346 -29 c23 -9 48 -62 41 -90 -9 -35 -46 -64 -81 -64 -35 0
-72 29 -81 64 -6 26 17 81 38 89 19 8 64 8 83 1z m2046 -48 c162 -35 313 -152
382 -297 104 -220 67 -458 -100 -631 -215 -222 -563 -226 -784 -8 -50 49 -76
86 -107 150 -61 129 -74 225 -47 353 64 302 358 496 656 433z m-2843 -26 c57
-35 77 -111 45 -177 -25 -52 -67 -75 -131 -70 -127 9 -173 151 -77 236 29 25
44 31 83 31 29 0 59 -8 80 -20z m703 -169 c213 -66 367 -263 385 -496 21 -260
-176 -521 -434 -574 -347 -72 -672 190 -672 541 0 269 192 498 460 548 66 13
186 4 261 -19z m4035 -246 c86 -56 82 -179 -8 -236 -91 -56 -219 29 -203 135
15 103 126 157 211 101z m-2738 -85 c47 -44 37 -110 -20 -134 -90 -38 -157 82
-76 138 31 22 70 20 96 -4z m-3515 -10 c194 -73 249 -328 102 -475 -62 -62
-109 -80 -205 -80 -69 0 -93 4 -128 23 -178 95 -215 325 -75 465 82 83 197
108 306 67z m2813 -44 c58 -49 25 -140 -51 -140 -76 0 -109 91 -51 140 15 13
38 24 51 24 13 0 36 -11 51 -24z m362 -59 c38 -35 28 -98 -20 -123 -56 -29
-118 6 -118 67 0 42 10 60 44 75 36 15 62 10 94 -19z m-4706 -37 c105 -30 164
-149 123 -248 -39 -91 -126 -135 -222 -110 -137 34 -183 208 -82 309 53 53
110 68 181 49z m6720 -119 c122 -64 188 -197 158 -323 -56 -232 -345 -307
-501 -130 -51 58 -72 125 -67 210 5 80 28 132 84 188 82 83 225 107 326 55z
m914 18 c196 -35 377 -207 428 -405 47 -181 -4 -377 -132 -515 -305 -330 -854
-175 -947 266 -8 39 -15 88 -15 110 0 132 68 294 164 389 133 133 315 189 502
155z m-4948 -69 c35 -22 62 -72 62 -116 0 -41 -39 -101 -78 -120 -55 -26 -119
-14 -159 29 -42 46 -51 96 -28 148 34 75 131 103 203 59z m1870 -51 c34 -16
73 -44 87 -61 101 -120 98 -290 -6 -396 -64 -64 -119 -87 -209 -87 -58 0 -86
5 -121 23 -139 68 -202 223 -149 364 28 74 70 122 142 157 86 44 170 44 256 0z
m453 16 c92 -48 90 -193 -2 -241 -23 -11 -47 -15 -83 -11 -41 4 -55 10 -83 41
-29 31 -33 43 -33 89 0 32 6 61 16 76 40 56 124 77 185 46z m-2879 -45 c62
-23 125 -82 160 -150 33 -65 32 -176 -2 -244 -55 -109 -167 -173 -286 -163
-112 9 -222 94 -253 197 -70 234 153 445 381 360z m-1201 -132 c175 -74 218
-318 81 -455 -142 -142 -393 -91 -462 95 -90 241 142 461 381 360z m-565 -33
c113 -86 64 -266 -78 -282 -57 -7 -108 15 -143 61 -109 143 78 330 221 221z
m-437 -1 c37 -22 52 -48 53 -93 0 -48 -15 -77 -55 -101 -118 -73 -237 87 -135
182 35 33 93 38 137 12z m2645 -143 c41 -23 68 -77 62 -124 -16 -136 -185
-172 -256 -55 -23 39 -25 76 -7 121 17 39 36 55 84 72 42 15 73 11 117 -14z
m3363 -3 c30 -28 31 -83 1 -115 -47 -50 -138 -12 -138 57 0 68 87 105 137 58z
m-402 -46 c217 -80 365 -291 365 -522 0 -150 -55 -283 -160 -390 -112 -112
-238 -164 -400 -163 -162 2 -285 57 -399 178 -93 100 -151 243 -151 375 0 240
177 469 413 535 78 22 255 15 332 -13z m-4023 -24 c105 -44 176 -164 165 -278
-12 -141 -120 -248 -259 -258 -118 -9 -219 48 -273 153 -39 77 -42 176 -6 245
75 146 224 200 373 138z m1859 7 c90 -47 90 -196 -1 -242 -89 -45 -200 22
-200 120 0 104 108 170 201 122z m2985 -75 c47 -20 115 -84 139 -129 60 -117
25 -280 -77 -361 -115 -90 -286 -81 -387 21 -101 101 -111 272 -21 386 79 100
226 135 346 83z m-2302 -5 c193 -51 356 -216 401 -407 73 -309 -120 -608 -435
-674 -178 -38 -373 25 -506 163 -160 166 -197 423 -92 633 40 80 151 194 228
235 118 62 279 82 404 50z m605 -114 c89 -62 83 -188 -9 -236 -89 -46 -200 19
-200 118 0 113 120 181 209 118z m2118 -3 c30 -28 31 -83 1 -115 -47 -50 -138
-12 -138 57 0 68 87 105 137 58z m-6524 -3 c105 -22 192 -70 272 -150 116
-115 165 -234 165 -400 -1 -300 -247 -545 -550 -545 -151 0 -285 55 -390 160
-112 112 -164 239 -164 400 1 160 57 284 179 399 134 124 310 174 488 136z
m2570 -46 c68 -73 -1 -189 -99 -165 -72 18 -100 117 -48 169 44 44 102 43 147
-4z m-872 -78 c64 -65 20 -171 -71 -171 -34 0 -47 6 -71 31 -90 97 48 233 142
140z m582 -126 c250 -53 437 -285 437 -540 0 -154 -52 -278 -165 -391 -218
-221 -560 -221 -779 0 -173 174 -212 410 -105 633 109 227 363 351 612 298z
m4182 -121 c109 -71 65 -237 -66 -251 -110 -11 -187 117 -126 208 44 66 128
85 192 43z m1313 -4 c98 -60 92 -192 -11 -243 -111 -55 -235 69 -180 180 37
76 123 104 191 63z m-6340 -105 c73 -61 33 -175 -60 -175 -51 0 -85 24 -99 70
-29 97 82 170 159 105z m5400 -2 c35 -21 62 -73 62 -117 0 -104 -118 -170
-207 -116 -72 43 -87 142 -32 205 48 54 118 66 177 28z m346 -34 c57 -45 21
-139 -55 -139 -71 0 -105 85 -54 135 30 31 73 32 109 4z m-6456 -49 c9 0 42
-69 42 -88 0 -85 -103 -132 -168 -77 -84 70 -13 203 93 173 16 -4 31 -8 33 -8z
m5227 -64 c183 -83 224 -329 79 -468 -164 -156 -438 -72 -484 148 -49 236 184
420 405 320z m-1481 -86 c70 -61 70 -148 1 -209 -65 -57 -172 -35 -208 42 -9
19 -17 47 -17 62 0 41 30 95 64 116 19 11 50 19 78 19 38 0 54 -6 82 -30z
m2116 -92 c97 -42 160 -131 168 -239 12 -176 -115 -312 -291 -311 -237 1 -369
274 -224 464 81 106 220 141 347 86z m930 -38 c231 -68 391 -280 393 -525 2
-255 -159 -468 -408 -540 -77 -23 -213 -23 -291 0 -187 54 -341 209 -389 390
-19 76 -19 211 1 289 77 299 391 474 694 386z m-6727 -85 c201 -42 363 -196
422 -399 22 -76 22 -216 0 -293 -56 -193 -209 -340 -405 -389 -85 -22 -231
-15 -315 15 -132 47 -253 157 -314 285 -39 81 -52 143 -52 244 0 152 53 277
165 387 139 137 314 189 499 150z m4617 -63 c44 -55 3 -132 -70 -132 -25 0
-68 40 -71 65 -6 41 11 76 42 89 40 17 75 9 99 -22z m-505 -7 c98 -21 185 -67
260 -136 122 -114 177 -238 178 -399 1 -161 -50 -287 -163 -400 -247 -247
-655 -203 -854 91 -54 80 -86 191 -86 297 0 163 49 282 165 397 137 137 312
189 500 150z m-703 -33 c10 -9 20 -31 24 -49 5 -27 1 -37 -25 -64 -27 -26 -37
-30 -63 -25 -60 12 -90 63 -66 114 25 51 90 63 130 24z m-767 -66 c51 -22 77
-69 72 -134 -4 -62 -39 -106 -96 -122 -84 -23 -171 41 -171 126 0 111 93 172
195 130z m402 -15 c74 -34 101 -134 53 -201 -74 -104 -235 -61 -247 67 -6 58
23 108 77 135 44 23 65 22 117 -1z m-4077 -82 c179 -79 225 -325 86 -463 -185
-185 -496 -59 -496 200 0 134 93 250 227 284 50 12 128 3 183 -21z m2848 -182
c56 -52 -1 -149 -79 -132 -72 16 -83 121 -15 151 36 15 62 10 94 -19z m1471
23 c29 -15 44 -61 31 -95 -14 -37 -38 -54 -76 -55 -34 0 -71 29 -80 64 -6 26
17 81 38 89 22 9 68 7 87 -3z m2030 -35 c240 -57 411 -257 428 -502 12 -167
-42 -310 -161 -429 -221 -221 -560 -220 -781 1 -175 175 -213 427 -98 648 115
219 373 338 612 282z m-3742 -48 c127 -88 116 -273 -21 -342 -29 -15 -67 -25
-91 -25 -53 0 -121 35 -159 83 -29 36 -31 45 -31 117 0 72 2 81 31 117 68 86
188 108 271 50z m1502 -224 c185 -50 338 -205 392 -393 16 -58 16 -222 0 -280
-54 -189 -204 -340 -394 -395 -73 -21 -213 -21 -292 0 -183 49 -340 208 -390
395 -8 30 -15 93 -15 140 0 47 7 110 15 140 80 300 385 476 684 393z m-2408
-126 c97 -65 83 -201 -25 -242 -120 -46 -232 84 -166 193 43 70 128 92 191 49z
m5347 -40 c49 -45 11 -137 -58 -137 -69 0 -107 92 -57 137 41 38 73 38 115 0z
m-7151 7 c86 -41 103 -159 31 -226 -55 -52 -137 -46 -194 13 -25 26 -29 38
-29 89 0 63 14 87 70 121 37 23 76 24 122 3z m420 -50 c82 -53 79 -175 -6
-231 -120 -81 -270 79 -184 196 43 59 130 75 190 35z m2432 -65 c72 -67 29
-179 -68 -179 -68 0 -121 83 -91 141 31 60 114 80 159 38z m5213 -13 c23 -17
39 -61 31 -83 -26 -73 -115 -87 -148 -22 -21 40 -19 66 10 94 27 28 79 33 107
11z m-256 -154 c47 -24 105 -84 130 -132 10 -21 19 -66 22 -111 4 -66 1 -84
-20 -131 -70 -153 -243 -217 -390 -145 -105 52 -162 143 -162 262 0 84 24 144
78 198 91 92 232 116 342 59z m-6866 -40 c101 -53 152 -133 158 -249 4 -60 0
-80 -21 -126 -52 -113 -142 -171 -267 -172 -85 0 -139 22 -201 81 -60 58 -84
117 -84 204 1 123 58 214 169 267 68 32 178 30 246 -5z m970 -57 c189 -50 340
-199 395 -389 23 -78 23 -214 0 -291 -55 -191 -188 -325 -385 -390 -74 -25
-215 -25 -294 -1 -190 57 -329 192 -387 376 -25 80 -27 219 -4 304 49 183 205
340 391 391 66 18 216 18 284 0z m3116 -35 c57 -25 111 -75 142 -134 22 -43
27 -64 27 -131 0 -67 -5 -88 -27 -131 -52 -99 -147 -157 -258 -157 -250 0
-382 291 -218 478 84 95 217 125 334 75z m458 2 c41 -24 68 -78 62 -125 -10
-81 -70 -131 -150 -124 -41 4 -55 10 -83 40 -57 63 -57 137 3 193 49 47 104
52 168 16z m-5274 -71 c32 -22 60 -77 60 -116 0 -66 -72 -135 -141 -135 -76 0
-145 79 -134 153 8 53 32 87 80 109 46 21 96 17 135 -11z m5644 -195 c79 -33
106 -140 53 -209 -62 -81 -185 -69 -232 23 -34 65 -4 148 65 182 42 22 70 22
114 4z m1382 -30 c109 -51 168 -142 168 -261 1 -169 -120 -290 -289 -289 -248
0 -377 292 -213 479 62 70 114 93 218 94 49 1 78 -5 116 -23z m-6895 -165 c64
-65 20 -171 -71 -171 -33 0 -48 6 -71 29 -64 65 -20 171 71 171 33 0 48 -6 71
-29z m5054 -6 c75 -74 -35 -185 -112 -113 -50 47 -12 138 57 138 19 0 40 -9
55 -25z m-1731 -34 c41 -23 68 -77 62 -124 -16 -136 -185 -172 -256 -55 -23
39 -25 76 -7 121 17 39 36 55 84 72 42 15 73 11 117 -14z m-2634 -142 c91 -40
158 -135 167 -238 6 -68 -7 -122 -46 -183 -56 -87 -141 -131 -253 -130 -239 3
-366 295 -206 477 87 99 215 127 338 74z m-600 -84 c73 -38 70 -144 -5 -180
-44 -20 -89 -10 -120 27 -42 50 -28 124 29 152 39 20 60 20 96 1z m6246 -36
c79 -14 207 -77 270 -133 140 -124 211 -332 175 -518 -40 -204 -212 -386 -412
-433 -191 -45 -385 9 -520 144 -36 36 -80 91 -97 122 -39 69 -72 192 -72 268
1 182 96 363 240 460 129 86 270 117 416 90z m-4220 -138 c34 -21 64 -75 64
-116 0 -41 -30 -95 -64 -116 -39 -24 -109 -25 -147 -2 -16 10 -39 37 -50 61
-29 58 -19 104 31 154 33 34 43 38 86 38 30 0 61 -7 80 -19z m4922 -11 c67
-41 91 -124 52 -187 -75 -123 -254 -74 -254 69 0 105 113 172 202 118z m-6053
-145 c75 -75 -34 -186 -111 -114 -51 48 -14 139 56 139 19 0 40 -9 55 -25z
m650 -70 c168 -35 315 -147 387 -295 43 -89 58 -155 58 -253 0 -226 -143 -432
-357 -514 -91 -34 -239 -43 -333 -18 -201 52 -363 221 -406 424 -18 84 -17
139 1 226 20 96 66 184 133 257 141 152 324 214 517 173z m3799 -66 c57 -45
21 -139 -55 -139 -71 0 -105 85 -54 135 30 31 73 32 109 4z m-1295 -34 c277
-66 463 -338 423 -618 -41 -286 -294 -492 -582 -474 -149 9 -273 68 -375 178
-199 216 -193 554 14 760 36 36 91 80 123 97 114 65 268 87 397 57z m638 -107
c30 -28 31 -83 1 -115 -47 -50 -138 -12 -138 57 0 68 87 105 137 58z m-4046
-24 c57 -39 94 -119 86 -185 -8 -62 -30 -102 -80 -143 -36 -28 -45 -31 -112
-31 -67 0 -77 3 -112 31 -48 38 -83 106 -83 159 0 81 64 172 138 196 46 14
121 2 163 -27z m4629 -141 c188 -52 346 -219 390 -412 17 -75 8 -230 -19 -306
-59 -167 -208 -304 -382 -350 -71 -19 -210 -19 -284 0 -253 66 -436 327 -410
585 22 214 161 395 360 469 112 42 228 47 345 14z m-1989 -575 c55 -23 108
-76 141 -138 34 -67 33 -185 -4 -256 -52 -99 -145 -156 -257 -156 -116 -1
-207 56 -263 162 -33 64 -33 186 0 250 76 146 231 202 383 138z m-1466 -238
c130 -63 87 -260 -57 -260 -99 0 -169 111 -124 198 19 36 48 61 82 72 44 13
54 12 99 -10z m1876 -53 c44 -34 47 -103 6 -132 -22 -16 -64 -20 -92 -9 -24
10 -46 60 -39 89 13 52 86 82 125 52z m764 -17 c50 -24 75 -65 75 -122 0 -105
-100 -167 -196 -122 -103 49 -97 202 11 250 41 18 62 17 110 -6z m-372 -41
c20 -25 22 -77 3 -101 -17 -23 -61 -39 -83 -31 -75 26 -85 114 -18 152 27 15
76 5 98 -20z m-500 -203 c18 -7 45 -28 60 -45 33 -40 37 -109 8 -157 -21 -34
-75 -64 -116 -64 -41 0 -95 30 -116 64 -29 48 -25 117 8 157 27 32 74 58 106
59 10 0 32 -6 50 -14z m365 -136 c30 -28 36 -62 18 -98 -21 -42 -72 -56 -116
-32 -42 23 -44 105 -2 136 26 20 75 17 100 -6z"/>
<path d="M8175 4888 c-124 -44 -243 -183 -280 -325 -21 -78 -19 -188 3 -261
31 -96 112 -203 213 -278 l47 -34 953 1 954 0 -55 21 c-395 149 -546 230 -817
441 -239 186 -498 341 -646 386 -91 28 -261 61 -306 60 -20 0 -49 -5 -66 -11z"/>
<path d="M7345 4789 c-305 -201 -808 -480 -1085 -601 -250 -109 -419 -160
-601 -182 -102 -12 2 -14 1004 -15 614 -1 1117 1 1117 3 0 2 -20 16 -45 30
-56 34 -158 127 -185 172 -25 39 -41 130 -70 388 -28 250 -30 266 -38 265 -4
0 -47 -27 -97 -60z"/>
<path d="M5090 1810 l0 -212 108 4 c127 4 161 20 193 85 29 60 25 217 -7 260
-39 52 -77 66 -190 71 l-104 5 0 -213z"/>
<path d="M5090 1014 l0 -256 109 4 c127 4 151 15 189 88 19 38 22 60 22 160 0
100 -3 122 -22 160 -13 24 -34 52 -48 62 -28 21 -119 38 -197 38 l-53 0 0
-256z"/>
<path d="M7108 1563 c-37 -23 -48 -53 -60 -158 -13 -119 -5 -558 12 -605 18
-49 47 -79 86 -86 41 -8 97 18 113 53 24 53 33 187 29 441 -4 218 -7 263 -22
300 -29 67 -99 92 -158 55z"/>
<path d="M9652 1567 c-60 -34 -72 -104 -72 -422 0 -317 13 -390 77 -420 68
-32 130 0 153 80 6 22 13 137 16 255 6 221 -5 415 -26 461 -23 51 -97 74 -148
46z"/>
<path d="M11788 1564 c-43 -23 -59 -66 -65 -170 l-6 -94 122 0 121 0 0 73 c-1
101 -13 147 -50 180 -34 31 -79 35 -122 11z"/>
</g>
</svg>
